REM DIRINDEX 1\2,1\3
REM DIRNAME folder01,folder02,folder03
TITLE ""
FILE "Track44.mp3" MP3
  TRACK 01 AUDIO
    TITLE "3:cjc140_160"
    INDEX 01 00:00:00
  TRACK 02 AUDIO
    TITLE "2:cjc140_161"
    INDEX 01 00:02:08
  TRACK 03 AUDIO
    TITLE "0:"
    INDEX 01 00:22:25
